<svg xmlns="http://www.w3.org/2000/svg" id="Layer_1" viewBox="0 0 1342.08 524.75"><defs><style>      .st0 {        fill: #fff;      }    </style></defs><g><polygon class="st0" points="947.54 126.93 897.1 177.53 1056.74 177.53 1107.2 126.93 947.54 126.93"></polygon><polygon class="st0" points="947.54 289.49 897.1 340.08 1056.74 340.08 1107.2 289.49 947.54 289.49"></polygon><g><polygon class="st0" points="947.35 208.21 896.9 258.81 1056.55 258.81 1107.01 208.21 947.35 208.21"></polygon><polygon class="st0" points="743.53 126.9 685.15 185.49 685.15 340.08 743.53 340.08 743.53 259.45 819.76 259.45 819.76 340.08 881.39 340.08 881.39 126.91 819.76 126.91 819.76 207.55 743.53 207.55 743.53 126.9"></polygon><path class="st0" d="M660.89,302.03l-34.77-34.77c24.28-12.11,40.96-37.17,40.96-66.15,0-40.81-33.08-73.88-73.89-73.88h-53.3l-58.39,58.49v154.37h58.39v-161.7h53.29c12.56,0,22.74,10.18,22.74,22.73s-10.18,22.74-22.74,22.74h-41.92v50.95l-.09.09.09.08v.03h.03l109.67,109.64-.08-82.62Z"></path><path class="st0" d="M1126.28,126.93h77.33c18.72,0,36.52,1.9,53.37,5.71,16.85,3.81,31.56,9.96,44.12,18.48,12.56,8.52,22.52,19.58,29.91,33.2,7.38,13.62,11.07,30.15,11.07,49.57,0,17.23-3.58,32.4-10.74,45.52-7.16,13.12-16.8,24.14-28.92,33.05-12.12,8.92-26.11,15.67-41.97,20.28-15.86,4.61-32.5,6.91-49.9,6.91h-84.27V126.93ZM1177.84,296.38h26.77c11.9,0,22.97-1.1,33.21-3.3,10.24-2.2,19.11-5.86,26.6-10.97,7.49-5.11,13.39-11.82,17.68-20.13,4.3-8.31,6.44-18.48,6.44-30.49,0-10.41-2.15-19.48-6.44-27.19-4.3-7.71-10.08-14.07-17.35-19.08-7.27-5-15.81-8.76-25.61-11.27-9.81-2.5-20.11-3.76-30.9-3.76h-30.4v126.18Z"></path></g><g><path class="st0" d="M524.7,405.35h9.41l9.82,28.65h-7.16l-1.84-5.73h-11.05l-1.84,5.73h-7.16l9.82-28.65ZM533.09,422.54l-3.27-10.23h-.82l-3.27,10.23h7.37Z"></path><path class="st0" d="M571.21,423.15c-.45,2.09-1.23,3.97-2.33,5.65-1.84,2.82-5.2,5.61-10.76,5.61-7.73,0-13.91-6.1-13.91-14.73s6.18-14.73,13.91-14.73c5.52,0,8.8,2.74,10.68,5.52,1.1,1.64,1.88,3.48,2.41,5.52h-6.55c-.29-.86-.7-1.64-1.27-2.33-.98-1.19-2.62-2.37-5.28-2.37-4.09,0-7.37,3.27-7.37,8.39s3.27,8.39,7.37,8.39c2.78,0,4.42-1.19,5.36-2.46.53-.7.94-1.51,1.19-2.46h6.55Z"></path><path class="st0" d="M600.8,423.15c-.45,2.09-1.23,3.97-2.33,5.65-1.84,2.82-5.2,5.61-10.76,5.61-7.73,0-13.91-6.1-13.91-14.73s6.18-14.73,13.91-14.73c5.52,0,8.8,2.74,10.68,5.52,1.1,1.64,1.88,3.48,2.41,5.52h-6.55c-.29-.86-.7-1.64-1.27-2.33-.98-1.19-2.62-2.37-5.28-2.37-4.09,0-7.37,3.27-7.37,8.39s3.27,8.39,7.37,8.39c2.78,0,4.42-1.19,5.36-2.46.53-.7.94-1.51,1.19-2.46h6.55Z"></path><path class="st0" d="M604.82,405.35h19.64v5.93h-13.1v5.52h12.28v5.73h-12.28v5.53h13.1v5.93h-19.64v-28.65ZM607.28,396.55h6.14l3.89,5.93h-5.12l-4.91-5.93Z"></path><path class="st0" d="M634.33,424.58c0,2.29,1.84,4.09,5.32,4.09s4.91-1.43,4.91-3.07c0-1.43-.98-2.46-4.09-3.07l-4.5-.82c-5.12-.94-7.57-3.44-7.57-7.98,0-4.91,3.85-8.8,10.84-8.8,7.57,0,11.66,4.09,11.66,9.82h-6.55c0-2.25-1.88-4.09-5.12-4.09-2.91,0-4.3,1.43-4.3,3.07,0,1.43.82,2.17,3.48,2.66l4.5.82c5.73,1.02,8.18,3.48,8.18,8.39s-3.89,8.8-11.46,8.8-11.87-4.3-11.87-9.82h6.55Z"></path><path class="st0" d="M672.59,411.69h-7.98v-6.34h22.51v6.34h-7.98v22.3h-6.55v-22.3Z"></path><path class="st0" d="M694.7,405.35h9.41l9.82,28.65h-7.16l-1.84-5.73h-11.05l-1.84,5.73h-7.16l9.82-28.65ZM703.09,422.54l-3.27-10.23h-.82l-3.27,10.23h7.37Z"></path><path class="st0" d="M741.21,423.15c-.45,2.09-1.23,3.97-2.33,5.65-1.84,2.82-5.2,5.61-10.76,5.61-7.73,0-13.91-6.1-13.91-14.73s6.18-14.73,13.91-14.73c5.53,0,8.8,2.74,10.68,5.52,1.1,1.64,1.88,3.48,2.41,5.52h-6.55c-.29-.86-.7-1.64-1.27-2.33-.98-1.19-2.62-2.37-5.28-2.37-4.09,0-7.37,3.27-7.37,8.39s3.27,8.39,7.37,8.39c2.78,0,4.42-1.19,5.36-2.46.53-.7.94-1.51,1.19-2.46h6.55Z"></path><path class="st0" d="M750.85,411.69h-7.98v-6.34h22.51v6.34h-7.98v22.3h-6.55v-22.3Z"></path><path class="st0" d="M768.46,405.35h6.55v28.65h-6.55v-28.65Z"></path><path class="st0" d="M797.74,433.59c-.33.16-.74.29-1.19.41-.78.21-1.88.41-3.32.41-7.73,0-13.91-6.1-13.91-14.73s6.18-14.73,13.91-14.73,13.91,6.1,13.91,14.73c0,3.72-1.15,6.47-2.25,8.31-.7,1.1-1.43,2-2.25,2.74l5.12,5.93h-7.57l-2.46-3.07ZM790.17,424.58h7.57l.82,1.02c.37-.37.74-.86,1.02-1.43.49-.98,1.02-2.41,1.02-4.5,0-5.12-3.27-8.39-7.37-8.39s-7.37,3.27-7.37,8.39,3.27,8.39,7.16,8.39l-2.87-3.48Z"></path><path class="st0" d="M811.11,405.35h6.55v16.78c0,3.48,2.46,5.93,5.52,5.93s5.53-2.46,5.53-5.93v-16.78h6.55v16.78c0,7.53-4.71,12.28-12.07,12.28s-12.07-4.75-12.07-12.28v-16.78Z"></path><path class="st0" d="M840.8,405.35h19.64v5.93h-13.1v5.52h12.28v5.73h-12.28v5.53h13.1v5.93h-19.64v-28.65Z"></path><path class="st0" d="M865.56,427.24h6.75v6.75h-6.75v-6.75Z"></path><path class="st0" d="M893.59,424.58c0,2.29,1.84,4.09,5.32,4.09s4.91-1.43,4.91-3.07c0-1.43-.98-2.46-4.09-3.07l-4.5-.82c-5.12-.94-7.57-3.44-7.57-7.98,0-4.91,3.85-8.8,10.84-8.8,7.57,0,11.66,4.09,11.66,9.82h-6.55c0-2.25-1.88-4.09-5.12-4.09-2.91,0-4.3,1.43-4.3,3.07,0,1.43.82,2.17,3.48,2.66l4.5.82c5.73,1.02,8.18,3.48,8.18,8.39s-3.89,8.8-11.46,8.8-11.87-4.3-11.87-9.82h6.55Z"></path><path class="st0" d="M921.1,405.35h9.41l9.82,28.65h-7.16l-1.84-5.73h-11.05l-1.84,5.73h-7.16l9.82-28.65ZM929.49,422.54l-3.27-10.23h-.82l-3.27,10.23h7.37Z"></path><path class="st0" d="M942.94,405.35h7.98l9,17.19h.82v-17.19h6.55v28.65h-7.98l-9-17.19h-.82v17.19h-6.55v-28.65Z"></path><path class="st0" d="M978.11,424.58c0,2.29,1.84,4.09,5.32,4.09s4.91-1.43,4.91-3.07c0-1.43-.98-2.46-4.09-3.07l-4.5-.82c-5.12-.94-7.57-3.44-7.57-7.98,0-4.91,3.85-8.8,10.84-8.8,7.57,0,11.66,4.09,11.66,9.82h-6.55c0-2.25-1.88-4.09-5.12-4.09-2.91,0-4.3,1.43-4.3,3.07,0,1.43.82,2.17,3.48,2.66l4.5.82c5.73,1.02,8.18,3.48,8.18,8.39s-3.89,8.8-11.46,8.8-11.87-4.3-11.87-9.82h6.55Z"></path><path class="st0" d="M1036.22,423.15c-.45,2.09-1.23,3.97-2.33,5.65-1.84,2.82-5.2,5.61-10.76,5.61-7.73,0-13.91-6.1-13.91-14.73s6.18-14.73,13.91-14.73c5.53,0,8.8,2.74,10.68,5.52,1.1,1.64,1.88,3.48,2.41,5.52h-6.55c-.29-.86-.7-1.64-1.27-2.33-.98-1.19-2.62-2.37-5.28-2.37-4.09,0-7.37,3.27-7.37,8.39s3.27,8.39,7.37,8.39c2.78,0,4.42-1.19,5.36-2.46.53-.7.94-1.51,1.19-2.46h6.55Z"></path><path class="st0" d="M1038.8,419.67c0-8.63,6.18-14.73,13.91-14.73s13.91,6.1,13.91,14.73-6.18,14.73-13.91,14.73-13.91-6.1-13.91-14.73ZM1060.08,419.67c0-5.12-3.27-8.39-7.37-8.39s-7.37,3.27-7.37,8.39,3.27,8.39,7.37,8.39,7.37-3.27,7.37-8.39Z"></path><path class="st0" d="M1070.95,405.35h10.03l5.73,17.8h.82l5.73-17.8h10.03v28.65h-6.55v-17.6h-.82l-5.73,17.6h-6.14l-5.73-17.6h-.82v17.6h-6.55v-28.65Z"></path><path class="st0" d="M1109.07,405.35h13.3c5.52,0,9.41,3.89,9.41,10.03s-3.89,10.03-9.41,10.03h-6.75v8.59h-6.55v-28.65ZM1121.96,419.06c1.84,0,3.27-1.39,3.27-3.68s-1.43-3.68-3.27-3.68h-6.34v7.37h6.34Z"></path><path class="st0" d="M1135.51,405.35h13.5c5.53,0,9.41,3.89,9.41,9.82,0,4.46-2,6.67-4.01,7.9-1.19.7-2.5,1.15-3.97,1.31l8.8,9.62h-8.18l-8.18-9.21h-.82v9.21h-6.55v-28.65ZM1148.6,418.85c1.84,0,3.27-1.39,3.27-3.68s-1.43-3.68-3.27-3.68h-6.55v7.37h6.55Z"></path><path class="st0" d="M1161.41,419.67c0-8.63,6.18-14.73,13.91-14.73s13.92,6.1,13.92,14.73-6.18,14.73-13.92,14.73-13.91-6.1-13.91-14.73ZM1182.69,419.67c0-5.12-3.27-8.39-7.37-8.39s-7.37,3.27-7.37,8.39,3.27,8.39,7.37,8.39,7.37-3.27,7.37-8.39Z"></path><path class="st0" d="M1193.57,405.35h10.03l5.73,17.8h.82l5.73-17.8h10.03v28.65h-6.55v-17.6h-.82l-5.73,17.6h-6.14l-5.73-17.6h-.82v17.6h-6.55v-28.65Z"></path><path class="st0" d="M1231.67,405.35h6.55v28.65h-6.55v-28.65Z"></path><path class="st0" d="M1248.96,424.58c0,2.29,1.84,4.09,5.32,4.09s4.91-1.43,4.91-3.07c0-1.43-.98-2.46-4.09-3.07l-4.5-.82c-5.12-.94-7.57-3.44-7.57-7.98,0-4.91,3.85-8.8,10.84-8.8,7.57,0,11.66,4.09,11.66,9.82h-6.55c0-2.25-1.88-4.09-5.12-4.09-2.91,0-4.3,1.43-4.3,3.07,0,1.43.82,2.17,3.48,2.66l4.5.82c5.73,1.02,8.18,3.48,8.18,8.39s-3.89,8.8-11.46,8.8-11.87-4.3-11.87-9.82h6.55Z"></path><path class="st0" d="M1269.91,427.24h6.75v6.75h-6.75v-6.75Z"></path></g></g><g><path class="st0" d="M189.54,0S132.01,36.92-.86,61.44L.12,276.63s1.61,104.9,94.57,182.23c0,0,47.96,39.07,94.85,65.88,46.88-26.81,94.85-65.88,94.85-65.88,92.96-77.33,94.57-182.23,94.57-182.23l.99-215.2C248.35,36.93,189.54,0,189.54,0ZM351.53,222.12c0,.09,0,.18,0,.27,0,.41,0,.84,0,1.3,0,.12,0,.24,0,.36,0,.23,0,.48,0,.72,0,.14,0,.28,0,.43,0,.25,0,.51,0,.77,0,.14,0,.29,0,.43-.01.96-.03,1.99-.06,3.1,0,.12,0,.25,0,.37,0,.34-.02.69-.03,1.04,0,.16,0,.32-.01.48,0,.35-.02.71-.03,1.07,0,.16-.01.33-.02.49-.04,1.21-.08,2.49-.13,3.84,0,.22-.02.45-.03.67-.02.38-.03.78-.05,1.17-.01.24-.02.48-.03.73-.02.41-.04.82-.06,1.24-.01.23-.02.46-.03.7-.04.79-.08,1.59-.12,2.41-.01.27-.03.53-.04.8-.02.41-.04.82-.07,1.24-.02.33-.04.66-.06,1-.02.41-.05.82-.07,1.23-.02.38-.04.76-.07,1.14-.02.4-.05.81-.07,1.22-.03.45-.06.91-.09,1.37-.02.32-.04.63-.06.95l-148.57,111.39h0s0,0,0,0l-.1,43.66h0s0,0,0,0l129.82-97.25,14.26-10.68c-.09.7-.18,1.42-.27,2.12-.16,1.26-.32,2.51-.49,3.8-4.51,34.04-20.99,64.59-37.78,87.8-.5.69-1,1.37-1.5,2.05-15.5,21-30.97,35.66-37.25,40.92-6.77,5.67-27.13,20.14-45.47,32.98-17.67,12.36-33.47,23.2-33.47,23.2,0,0-52.63-36.11-73.18-51.66-2.4-1.82-4.37-3.36-5.76-4.52-.99-.83-2.2-1.89-3.61-3.17-.19-.17-.39-.35-.59-.54-.33-.3-.66-.61-1.01-.94-5.14-4.8-12.27-12-20.06-21.17-.52-.61-1.04-1.23-1.57-1.86-20.16-24.13-44.1-60.94-49.69-103.1-.15-1.13-.29-2.22-.43-3.32-.11-.87-.23-1.75-.34-2.6l108.55,81.31,35.52,26.61-.04-18.37-.06-25.29-13.73-10.3L28.71,252.68c-.06-.89-.11-1.76-.17-2.62,0-.1-.01-.19-.02-.29-.05-.74-.09-1.47-.13-2.19,0-.14-.02-.29-.02-.43-.04-.72-.08-1.43-.12-2.13,0-.08,0-.15-.01-.23-.08-1.56-.16-3.06-.22-4.5,0-.13-.01-.25-.02-.37-.03-.6-.05-1.19-.08-1.76,0-.11,0-.22-.01-.33-.08-2.05-.15-3.96-.2-5.71,0-.07,0-.13,0-.19-.02-.55-.03-1.08-.04-1.59,0-.03,0-.06,0-.09-.01-.5-.02-.98-.03-1.45,0-.14,0-.28,0-.42,0-.33-.01-.65-.02-.96,0-.16,0-.31,0-.46,0-.28,0-.56-.01-.83,0-.15,0-.31,0-.46,0-.37,0-.73-.01-1.08,0-.16,0-.32,0-.48,0-.2,0-.4,0-.6,0-.18,0-.35,0-.52,0-.14,0-.28,0-.42,0-.2,0-.39,0-.58v-.03l149.83,112.24-.1-43.66L27.65,178.36l.13-92.13c11.73-1.98,40.14-7.21,72.56-16.18,1.05-.29,2.1-.58,3.15-.88,28.77-8.11,60.33-19.14,86.05-33.41,19.53,10.84,42.23,19.77,64.47,26.97,42.83,13.87,83.94,21.3,97.29,23.5l.06,43.62.07,48.51-149.62,112.18-.1,43.66,149.83-112.24c0,.06,0,.11,0,.16Z"></path><polygon class="st0" points="237.24 221.04 237.24 221.04 237.24 221.04 237.24 221.04 237.24 221.04 231.23 205.2 217.37 168.68 262.37 135.34 262.37 135.34 262.37 135.34 262.37 135.34 262.37 135.34 262.37 135.34 206.35 136.91 189.54 83.46 189.54 83.46 189.54 83.46 189.54 83.46 189.54 83.46 189.54 83.46 189.54 83.46 172.72 136.91 116.71 135.34 116.71 135.34 116.71 135.34 116.71 135.34 116.71 135.34 116.71 135.34 161.71 168.68 148.24 204.16 141.83 221.04 141.83 221.04 141.83 221.04 141.83 221.04 141.83 221.04 141.83 221.04 189.54 189.14 189.54 189.14 237.24 221.04 237.24 221.04"></polygon></g></svg>